<svg id="logoCondensedAM" viewBox="0 0 108 85" xmlns="http://www.w3.org/2000/svg" xmlns:xlink="http://www.w3.org/1999/xlink">
  <g fill="#FFF">
    <path d="M74.6 25.7c1.7 0 2.8.5 3.8 1 2 .9 4.2 2 7.1 3.4 0 0 4.6-3.3 4.9-3.5 1.6-1.1 3.1-.3 3.6.7 1.7 3.3 4.9 10 6.6 16.2.2.7 0 1.9-1.2 2.3-.7.2-1.8.4-3 .5-1.7.2-1.6 1.6-1.6 2.4v10.2c0 1.4-1.1 6.1-6.5 6.1H76c-4.7 0-8.4-3.9-8.4-8.1V32.7c-.2-4.2 3.6-7 7-7"></path>
    <path d="M55 65H15v4.5h47s1.7-4 1.7-8.3V30.9c0-2.4 1-6.4 5.9-7.5.1 0 .3-.1.4-.1 13.9-3.3 28.2-.3 36.3 3.2 1.5.7 1.8-.5 1.7-1 .2-6.8-5-14.6-14.5-15.1-7.7-.2-12 2.6-13.6 3.4-.1.1-.3 0-.5-.2-1.4-1.4-4.5-3.5-7.9-4.5-.5-.1-.6-.9 0-.9 7.3-.8 13.7 0 16.4.5.6.1 1.1-.3.8-.8-.2-.4-.3-.6-.6-1.3-.7-1.4-2.4-2.9-4.6-3.5-5.7-1.6-15.5-3-24.2-3C49.5 0 39.2 2 36.6 2.6c-.6 0-1.5.2-1.6.3-.8.1-.9.8-.6 1.1l1 1c.3.4.5 1-.1 1.6L17.1 23h12.5c.8 0 1.6.7 1.6 1.6 0 .8-.7 1.6-1.5 1.6H13.5l-4.9 4.5H29.8c.8 0 1.5.9 1.5 1.6 0 .7-.6 1.6-1.5 1.6H5l-5 4.6h42.7c.8 0 1.5.9 1.5 1.6 0 .9-.6 1.7-1.5 1.7H0v4.5h42.7c1 0 1.5.9 1.5 1.7 0 .7-.7 1.5-1.6 1.5H0V54h55.7c.9 0 1.5.8 1.5 1.7 0 .8-.6 1.6-1.5 1.6H15v4.5h40.8c.8 0 1.4.9 1.4 1.7 0 .8-.7 1.6-1.4 1.6H55zM29.9 80.4V85h9.5c8.5-.1 14-4.6 14-4.6H29.9zM29.9 72.7v4.5h27.2c1.3-1.3 2.9-3.6 3.3-4.5H29.9z"></path>
  </g>
</svg>