<svg id="logoSkyteam" viewBox="0 0 71.7 71.5" xmlns="http://www.w3.org/2000/svg" xmlns:xlink="http://www.w3.org/1999/xlink">
  <g>
    <g>
      <g>
        <polygon fill="#FFFFFF" points="56.3,3.6 55.9,3.5 56,3.3 57.1,3.7 57,4 56.6,3.8 56.1,4.9 55.8,4.8"></polygon>
        <polygon fill="#FFFFFF" points="57.3,3.8 57.7,4 57.6,5.2 57.6,5.2 58.4,4.4 58.8,4.6 58.2,5.9 57.9,5.8 58.5,4.7 58.5,4.7 57.5,5.6 57.3,5.5 57.5,4.2 57.4,4.2 56.9,5.3 56.6,5.2"></polygon>
        <path fill="#FFFFFF" d="M60.5,15.6L60.5,15.6c5.2,5.3,8.6,12.3,9.1,20.2c1.2,17.5-12,32.7-29.5,33.9c-8.2,0.6-15.9-2-21.9-6.8l0,0 c6.2,5.8,14.7,9.1,23.9,8.5C59.6,70.2,72.8,55,71.6,37.5C71,28.7,66.8,21,60.5,15.6"></path>
        <path fill="#FFFFFF" d="M4.3,51.8c-1,0.6-1.2,1.4-0.7,2.7c0.5,1.2,1.2,1.7,2,1.4c0.6-0.2,0.7-0.8,0.5-2.2L6,53.1 c-0.3-1.4-0.3-2-0.1-2.6C6,49.8,6.4,49.3,7,49.1c1.4-0.6,2.8,0.3,3.6,2.3c0.9,2.2,0.4,3.8-1.3,4.5l-0.4-1.1 c1.2-0.5,1.5-1.6,0.9-3.2c-0.5-1.3-1.3-1.9-2.2-1.5C6.9,50.4,6.7,51,7,52.5l0,0.7l0.1,0.5c0.2,1.1,0.2,1.5,0.1,1.9 c-0.1,0.6-0.5,1-1.1,1.2c-1.4,0.5-2.6-0.3-3.4-2.1c-0.8-2-0.4-3.4,1.1-4.1L4.3,51.8z"></path>
        <polygon fill="#FFFFFF" points="3.4,40.3 8.2,36.2 8.2,37.7 4.1,41.1 5.5,42.6 8.3,42.5 8.3,43.7 0.2,43.9 0.1,42.7 3.4,42.6 3.8,42.6 4.2,42.6 3.9,42.3 3.7,42 0,38.1 0,36.6"></polygon>
        <path fill="#FFFFFF" d="M7,27.6l3.1,1.1l-0.4,1.1l-3.2-1.1l-5.7,1.7L1.3,29l3.5-1l0.4-0.1c0.2-0.1,0.3-0.1,0.6-0.1 c-0.3-0.3-0.3-0.4-0.6-0.8L3,24.1l0.5-1.3L7,27.6z"></path>
        <polygon fill="#FFFFFF" points="12.5,12.6 10.8,14.7 16,18.9 14.7,20.4 9.6,16.2 7.8,18.3 6.7,17.3 11.4,11.6"></polygon>
        <polygon fill="#FFFFFF" points="23.6,4.8 19.4,7.2 20.3,8.7 24.1,6.5 24.8,7.7 21,9.9 22.1,11.7 26.3,9.2 27,10.5 21.1,14 17,6.9 22.8,3.5"></polygon>
        <path fill="#FFFFFF" d="M39.4,8l-2.1,0.1l-1.1-1.8l-3.3,0.5l-0.5,2l-2,0.5l2.2-9l2-0.3L39.4,8z M34.8,3.8c-0.4-0.8-0.6-1.1-0.9-1.7 c-0.1,0.6-0.2,1-0.4,1.9l-0.3,1.6l2.4-0.4L34.8,3.8z"></path>
        <path fill="#FFFFFF" d="M52.6,10.6l-1.7-0.7l0.7-2.4c0.1-0.3,0.2-0.7,0.3-1.2s0.3-0.9,0.3-1.2c0.1-0.3,0.2-0.7,0.3-1l0.2-0.6 c-0.5,0.8-0.7,1.1-1.1,1.8c-0.2,0.3-0.4,0.5-0.5,0.7l-2.3,3.3l-1.5-0.4L46.8,5c0-0.2,0-0.5-0.1-0.9c0-0.5-0.1-0.9-0.1-1.2 c0-0.2,0-0.6,0-1l-0.2,1C46.1,4,46,4.4,45.7,5.7L45,8.3L43.2,8l2-8L48,0.5l0.4,3.8c0.1,0.9,0.1,1.6,0.1,2.7 c0.3-0.6,0.4-0.8,0.8-1.4c0.2-0.4,0.4-0.7,0.6-1l2.2-3.1l2.6,0.9L52.6,10.6z"></path>
        <path fill="#FFFFFF" d="M36.9,26.4c-1,0.9-3,2.8-4.9,4.6l-2.2,2.1c-1.8-0.3-3.5-0.5-5.3-0.5c-4,0-7.6,1.1-9.3,2.8 c-0.6,0.7-1,1.4-0.9,2.1c0,1.9,2.2,2.9,2.9,3.2c3.5,1.3,6.5,0.9,9.6-1.2c1.7-1.2,3.8-3.1,5.4-4.7c1.3,0.3,2.7,0.7,4.2,1.1 l1.6,0.3c-1.8,1.8-3.7,3.7-5.5,5.3l-0.1,0.1c-2.4,2.2-4.2,3.7-6.7,4.3c-1.8,0.4-3.1,0-3.5-0.2l-0.1,0.1c1.5,1.2,2.9,1.9,5.3,1.7 c2.3-0.2,4.9-1.6,7.6-4.2l3.6-3.6l2.5-2.5l5.2,1.5c0.1,0,0.1,0,0.1,0l-3.2,3.1l-2.7,2.7c-2.8,2.7-4.3,4.1-6,5.3 c-2.7,1.9-5,2.9-7.1,3.1c-1.1,0.1-2.6,0-3.9-0.8c-0.1,0-0.1,0.1-0.1,0.1c1.4,1.2,3.1,2.6,6,2.5c3.3-0.1,6.2-1.7,10.8-5.9 c2.1-1.9,4.1-4,6-5.9l3.4-3.4c2.2,0.5,4.2,0.7,6.4,0.7c3.2-0.1,5.9-1.6,6-3.4c0-1.3-1-2-1.7-2.4c-0.5-0.3-2-1.1-3.9-1.1 c-2.4,0-4.9,1.1-7.5,3.2L47.2,38l-0.6-0.2l-4.7-1.3c1.4-1.3,2.6-2.4,3.6-3.4c2.6-2.3,5.4-3.2,7.1-3.3c1.2-0.1,3.3,0,4.2,0.6 l0.1-0.1c-2.3-2-4.3-2.2-6-2.2c-1.6,0-4.3,0.5-7.4,3c-1.3,1-3,2.7-4.8,4.5l-2.4-0.7l-0.6-0.2l-2.5-0.8c0.1,0,1.4-1.3,1.4-1.3 c1.7-1.7,3.3-3.2,4.5-4.3c4.5-3.8,7.4-4.3,9.3-4.3c2.2,0,3.9,0.4,5.1,1.3l0.1-0.1c-2.5-2.3-4.4-3-7.5-3.1 C43.5,22,40.2,23.6,36.9,26.4 M19.2,40c-1.5-0.1-2.2-0.7-2.2-1.8c0-0.1,0.1-3.7,8.3-4.1c0.9,0,2-0.1,3.6,0.1 C28.8,34.2,28,35,28,35l-0.5,0.5C25.5,37.1,22.1,40.1,19.2,40 M52.4,37c2.4-1.6,4.3-2.4,5.6-2.4c0.7,0,1.6,0.2,1.6,1.1 c0,0.9-0.9,1.7-2.6,2.3c-1.5,0.5-3.8,0.7-6.3,0.4C51.3,37.8,51.9,37.4,52.4,37"></path>
      </g>
    </g>
  </g>
</svg>